# xmcd
#
# Track frame offsets:
#   150
#   15699
#   28039
#   45175
#   61294
#   77689
#   92268
#   109523
#   122725
#   141553
#   157429
#   175329
#   190016
#   203302
#   217973
#   228155
#   249965
#   262160
#   277333
#   294396
#   304412
#   318425
#
# Disc length: 4457 seconds
#
# Revision: 0
# Processed by: cddbd v1.5.1PL0 Copyright (c) Steve Scherf et al.
# Submitted via: BirdCage ASPI Rip 3.0.1
#
DISCID=35116716
DTITLE=Hansi hinterseer - Diverse
DYEAR=2000
DGENRE=Blues
TTITLE0=1
TTITLE1=2
TTITLE2=3
TTITLE3=4
TTITLE4=15
TTITLE5=6
TTITLE6=7
TTITLE7=8
TTITLE8=9
TTITLE9=10
TTITLE10=11
TTITLE11=12
TTITLE12=13
TTITLE13=14
TTITLE14=15
TTITLE15=16
TTITLE16=17
TTITLE17=18
TTITLE18=19
TTITLE19=20
TTITLE20=21
TTITLE21=22
EXTD=
EXTT0=
EXTT1=
EXTT2=
EXTT3=
EXTT4=
EXTT5=
EXTT6=
EXTT7=
EXTT8=
EXTT9=
EXTT10=
EXTT11=
EXTT12=
EXTT13=
EXTT14=
EXTT15=
EXTT16=
EXTT17=
EXTT18=
EXTT19=
EXTT20=
EXTT21=
PLAYORDER=
